<svg width="30" height="31" viewBox="0 0 30 31" fill="none" xmlns="http://www.w3.org/2000/svg">
<path d="M29.5871 8.8054L25.5199 4.73821L25.3711 4.58941C25.0735 4.39101 24.7759 4.29181 24.4783 4.29181L18.08 4.83741C13.2688 0.819826 7.21761 -0.916167 2.10883 0.472628C1.31523 0.671027 0.670431 1.31582 0.472031 2.10942C-0.916763 7.1686 0.81923 13.2694 4.88642 18.031L4.34082 24.3301V24.4293C4.34082 24.7269 4.44002 25.0741 4.63842 25.3221L8.8544 29.5877C9.152 29.8853 9.4992 30.0341 9.896 30.0341C10.0448 30.0341 10.1936 30.0341 10.2928 29.9845C10.7888 29.8357 11.1856 29.3893 11.3344 28.8933L11.9296 23.5861C12.624 23.9333 13.3184 24.2309 14.0128 24.4789C14.2608 24.5781 14.5088 24.6277 14.7568 24.6277C15.4016 24.6277 15.9968 24.3797 16.4432 23.9333L23.8335 16.543C24.4783 15.8982 24.7263 14.9062 24.4287 14.063C24.1807 13.3686 23.8831 12.6742 23.5359 11.9798L28.7439 11.3846H28.8431C29.3887 11.2854 29.7855 10.8886 29.9343 10.343C30.0831 9.74779 29.9839 9.2022 29.5871 8.8054ZM9.2512 26.9093L6.57281 24.1813L6.92001 20.1638C7.8128 20.9574 8.7552 21.7014 9.7472 22.3461L9.2512 26.9093ZM22.2463 14.9062L14.9056 22.2469C14.856 22.2965 14.8064 22.2966 14.7568 22.2966C12.1776 21.4038 9.6976 19.8166 7.66401 17.783C3.29922 13.3686 1.31523 7.4662 2.60482 2.70462C2.65442 2.65502 2.65442 2.60542 2.70402 2.60542C3.69602 2.35742 4.68802 2.20862 5.72961 2.20862C9.8464 2.20862 14.3104 4.14301 17.7328 7.615C19.7664 9.64859 21.3536 12.1286 22.2463 14.7078C22.2959 14.807 22.2959 14.8566 22.2463 14.9062ZM22.3456 9.79739C21.7008 8.8054 20.9568 7.8134 20.1632 6.9206L24.1807 6.57341L26.8591 9.2518L22.3456 9.79739Z" fill="#E84910"/>
<path d="M26.5615 19.0725C26.4127 18.9733 25.8671 18.7253 25.2719 19.2213C24.7759 19.6181 22.4447 21.9493 21.9983 22.3957C18.824 25.5701 18.824 25.5701 19.0224 26.2645C19.072 26.4629 19.1712 26.6613 19.32 26.7605C20.9071 28.3477 23.3375 28.6949 25.1727 28.6949C26.5615 28.6949 27.6031 28.4965 27.7023 28.4469C28.1487 28.3477 28.4959 28.0005 28.5951 27.5541C28.6447 27.3061 29.6863 21.9989 26.8591 19.1717C26.7103 19.1717 26.6111 19.1221 26.5615 19.0725ZM26.4623 26.4629C25.1727 26.6117 23.1887 26.6117 21.7007 25.8677C22.7919 24.7765 24.7263 22.7925 25.8175 21.7509C26.5615 23.1397 26.5615 25.1733 26.4623 26.4629Z" fill="#E84910"/>
<path d="M12.0782 7.96216C9.79662 7.96216 7.96143 9.79735 7.96143 12.0789C7.96143 14.3605 9.79662 16.1957 12.0782 16.1957C14.3598 16.1957 16.195 14.3605 16.195 12.0789C16.195 9.79735 14.3598 7.96216 12.0782 7.96216ZM12.0782 14.0133C11.0366 14.0133 10.1934 13.1701 10.1934 12.1285C10.1934 11.0869 11.0366 10.2438 12.0782 10.2438C13.1198 10.2438 14.0126 11.0373 14.0126 12.0789C14.0126 13.1205 13.1198 14.0133 12.0782 14.0133Z" fill="#E84910"/>
</svg>
