<svg width="29" height="29" viewBox="0 0 29 29" fill="none" xmlns="http://www.w3.org/2000/svg">
<path d="M27.8993 13.4472H25.0759C24.5974 8.27888 20.5776 4.11551 15.5528 3.58911V1.10066C15.5528 0.526403 15.0743 0 14.4521 0C13.8779 0 13.3515 0.478548 13.3515 1.10066V3.58911C8.32673 4.11551 4.30693 8.23102 3.82838 13.4472H1.10066C0.526403 13.4472 0 13.9257 0 14.5479C0 15.1221 0.478548 15.6485 1.10066 15.6485H3.92409C4.40264 20.8168 8.42244 24.9802 13.4472 25.5066V27.8993C13.4472 28.4736 13.9257 29 14.5479 29C15.1221 29 15.6485 28.5215 15.6485 27.8993V25.4109C20.6733 24.8845 24.6931 20.769 25.1716 15.5528H27.8993C28.4736 15.5528 29 15.0743 29 14.4521C29 13.9257 28.4736 13.4472 27.8993 13.4472ZM22.9224 13.4472H19.9554C19.5248 11.1502 17.802 9.33168 15.5528 8.90099V5.79043C19.429 6.26898 22.4439 9.42739 22.9224 13.4472ZM14.5 18.0891C12.5858 18.0891 11.0545 16.462 11.0545 14.5C11.0545 12.538 12.5858 10.9587 14.4521 10.9109C16.3185 10.9109 17.8498 12.538 17.8498 14.5C17.8977 16.462 16.3663 18.0413 14.5 18.0891ZM13.4472 5.74257V8.85314C11.2459 9.28383 9.47525 11.1023 9.04455 13.3993H6.07756C6.55611 9.42739 9.57096 6.26898 13.4472 5.74257ZM6.07756 15.6007H9.04455C9.47525 17.8977 11.198 19.7162 13.4472 20.1469V23.2574C9.57096 22.731 6.55611 19.5726 6.07756 15.6007ZM15.6007 23.2574V20.1469C17.802 19.7162 19.5726 17.8977 20.0033 15.6007H22.9703C22.4439 19.5726 19.429 22.731 15.6007 23.2574Z" fill="#E84910"/>
</svg>
