<?xml version="1.0" encoding="UTF-8"?>
<svg id="Capa_2" data-name="Capa 2" xmlns="http://www.w3.org/2000/svg" viewBox="0 0 483.1 420.1">
  <defs>
    <style>
      .cls-1 {
        fill: none;
      }

      .cls-1, .cls-2, .cls-3, .cls-4, .cls-5, .cls-6, .cls-7 {
        stroke-width: 0px;
      }

      .cls-2 {
        fill: #1d1d1b;
      }

      .cls-3 {
        fill: #e84910;
      }

      .cls-4 {
        fill: #000;
      }

      .cls-5 {
        fill: #d22618;
      }

      .cls-6 {
        fill: #d0861c;
      }

      .cls-7 {
        fill: #fff;
      }
    </style>
  </defs>
  <g id="Capa_1-2" data-name="Capa 1">
    <g>
      <path class="cls-2" d="M234.88,129.75h13.34c23.25,0,42.13,18.88,42.13,42.13v398.84c0,23.25-18.88,42.13-42.13,42.13h-13.34c-23.25,0-42.13-18.88-42.13-42.13V171.88c0-23.25,18.88-42.13,42.13-42.13Z" transform="translate(612.86 129.75) rotate(90)"/>
      <rect class="cls-3" x="6.94" y="329.71" width="469.22" height="83.18" rx="32.13" ry="32.13"/>
      <g>
        <path class="cls-7" d="M27.92,349.95h8.59v41.39h-8.59v-41.39Z"/>
        <path class="cls-7" d="M70.41,371.72h-8.2c-.15-1.14-.53-2.17-1.15-3.09-.9-1.24-2.29-1.85-4.18-1.85-2.7,0-4.54,1.34-5.53,4.02-.52,1.42-.79,3.31-.79,5.67s.26,4.05.79,5.42c.95,2.55,2.75,3.82,5.39,3.82,1.87,0,3.2-.5,3.99-1.52.79-1.01,1.26-2.32,1.43-3.93h8.17c-.19,2.43-1.07,4.74-2.64,6.91-2.51,3.5-6.23,5.25-11.15,5.25s-8.55-1.46-10.87-4.38c-2.32-2.92-3.48-6.71-3.48-11.37,0-5.26,1.28-9.35,3.85-12.27,2.56-2.92,6.1-4.38,10.61-4.38,3.84,0,6.98.86,9.42,2.58s3.89,4.76,4.34,9.13Z"/>
        <path class="cls-7" d="M102.11,382.36c-.21,1.82-1.15,3.66-2.84,5.53-2.62,2.98-6.29,4.46-11.01,4.46-3.89,0-7.33-1.25-10.31-3.76s-4.46-6.59-4.46-12.24c0-5.3,1.34-9.36,4.03-12.19,2.69-2.83,6.17-4.24,10.46-4.24,2.55,0,4.84.48,6.88,1.43,2.04.96,3.73,2.46,5.05,4.52,1.2,1.82,1.98,3.92,2.33,6.32.21,1.4.29,3.43.25,6.07h-20.95c.11,3.07,1.08,5.22,2.89,6.46,1.1.77,2.43,1.15,3.99,1.15,1.65,0,2.99-.47,4.02-1.4.56-.51,1.06-1.21,1.49-2.11h8.17ZM94.2,372.98c-.13-2.12-.77-3.72-1.92-4.82-1.15-1.1-2.58-1.64-4.28-1.64-1.85,0-3.29.58-4.31,1.74-1.02,1.16-1.66,2.73-1.92,4.72h12.44Z"/>
        <path class="cls-7" d="M153.73,388.26c-3.09,2.83-7.04,4.24-11.85,4.24-5.95,0-10.63-1.91-14.04-5.73-3.41-3.84-5.11-9.1-5.11-15.78,0-7.23,1.94-12.79,5.81-16.71,3.37-3.41,7.66-5.11,12.86-5.11,6.96,0,12.06,2.28,15.28,6.85,1.78,2.56,2.73,5.14,2.86,7.72h-8.65c-.56-1.98-1.28-3.48-2.16-4.49-1.57-1.8-3.9-2.7-6.99-2.7s-5.63,1.27-7.44,3.81c-1.82,2.54-2.72,6.13-2.72,10.77s.96,8.12,2.88,10.43c1.92,2.31,4.36,3.47,7.31,3.47s5.34-.99,6.94-2.98c.88-1.07,1.61-2.67,2.19-4.8h8.56c-.75,4.51-2.66,8.18-5.73,11.01Z"/>
        <path class="cls-7" d="M180.8,368.12c-3.22,0-5.38,1.05-6.49,3.15-.62,1.18-.93,3-.93,5.45v14.63h-8.06v-30.61h7.64v5.33c1.24-2.04,2.31-3.43,3.23-4.18,1.5-1.25,3.44-1.88,5.84-1.88.15,0,.28,0,.38.01.1,0,.33.02.69.04v8.2c-.51-.06-.96-.09-1.35-.11s-.71-.03-.95-.03Z"/>
        <path class="cls-7" d="M213.99,382.36c-.21,1.82-1.15,3.66-2.84,5.53-2.62,2.98-6.29,4.46-11.01,4.46-3.89,0-7.33-1.25-10.31-3.76s-4.46-6.59-4.46-12.24c0-5.3,1.34-9.36,4.03-12.19,2.69-2.83,6.17-4.24,10.46-4.24,2.55,0,4.84.48,6.88,1.43,2.04.96,3.73,2.46,5.05,4.52,1.2,1.82,1.98,3.92,2.33,6.32.21,1.4.29,3.43.25,6.07h-20.95c.11,3.07,1.08,5.22,2.89,6.46,1.1.77,2.43,1.15,3.99,1.15,1.65,0,2.99-.47,4.02-1.4.56-.51,1.06-1.21,1.49-2.11h8.17ZM206.07,372.98c-.13-2.12-.77-3.72-1.92-4.82-1.15-1.1-2.58-1.64-4.28-1.64-1.85,0-3.29.58-4.31,1.74-1.02,1.16-1.66,2.73-1.92,4.72h12.44Z"/>
        <path class="cls-7" d="M220.93,364.05c2.12-2.7,5.75-4.04,10.9-4.04,3.35,0,6.33.67,8.93,1.99,2.6,1.33,3.9,3.84,3.9,7.53v14.04c0,.97.02,2.15.05,3.54.06,1.05.21,1.76.48,2.13.26.38.65.68,1.18.93v1.18h-8.71c-.24-.62-.41-1.2-.51-1.74-.09-.54-.17-1.16-.22-1.85-1.1,1.2-2.38,2.22-3.82,3.06-1.72.99-3.67,1.49-5.84,1.49-2.77,0-5.06-.79-6.87-2.37-1.81-1.58-2.71-3.82-2.71-6.73,0-3.76,1.45-6.49,4.35-8.17,1.59-.92,3.93-1.57,7.02-1.97l2.72-.34c1.48-.19,2.54-.42,3.17-.7,1.14-.49,1.71-1.24,1.71-2.27,0-1.25-.44-2.12-1.31-2.6-.87-.48-2.15-.72-3.83-.72-1.89,0-3.23.47-4.02,1.4-.56.69-.94,1.63-1.12,2.81h-7.72c.17-2.68.92-4.88,2.25-6.6ZM226.88,385.56c.75.62,1.67.93,2.75.93,1.72,0,3.31-.5,4.76-1.52,1.45-1.01,2.2-2.86,2.26-5.53v-2.98c-.51.32-1.02.58-1.53.77-.52.2-1.22.38-2.12.55l-1.8.34c-1.69.3-2.89.67-3.62,1.1-1.24.73-1.85,1.86-1.85,3.4,0,1.37.38,2.35,1.15,2.95Z"/>
        <path class="cls-7" d="M268.95,369.16c-.67-1.48-1.99-2.22-3.96-2.22-2.28,0-3.82.74-4.61,2.22-.43.84-.65,2.1-.65,3.76v18.42h-8.12v-30.55h7.78v4.46c.99-1.59,1.93-2.72,2.81-3.4,1.55-1.2,3.57-1.8,6.04-1.8,2.34,0,4.23.51,5.67,1.54,1.16.96,2.04,2.18,2.64,3.68,1.05-1.8,2.35-3.12,3.9-3.96,1.65-.84,3.48-1.26,5.5-1.26,1.35,0,2.68.26,3.99.79,1.31.52,2.5,1.44,3.57,2.75.86,1.07,1.44,2.38,1.74,3.93.19,1.03.28,2.54.28,4.52l-.06,19.29h-8.2v-19.49c0-1.16-.19-2.12-.56-2.86-.71-1.42-2.02-2.13-3.93-2.13-2.21,0-3.73.92-4.58,2.75-.43.97-.65,2.14-.65,3.51v18.22h-8.06v-18.22c0-1.82-.19-3.14-.56-3.96Z"/>
        <path class="cls-7" d="M334.54,385.36c2.04,0,3.7-.22,4.97-.67,2.42-.86,3.62-2.46,3.62-4.8,0-1.37-.6-2.42-1.8-3.17-1.2-.73-3.08-1.38-5.64-1.94l-4.38-.98c-4.31-.97-7.28-2.03-8.93-3.17-2.79-1.91-4.18-4.9-4.18-8.96,0-3.71,1.35-6.79,4.04-9.24,2.7-2.45,6.66-3.68,11.88-3.68,4.36,0,8.08,1.16,11.16,3.47,3.08,2.31,4.69,5.67,4.84,10.07h-8.31c-.15-2.49-1.24-4.26-3.26-5.31-1.35-.69-3.02-1.04-5.03-1.04-2.23,0-4.01.45-5.34,1.35s-1.99,2.15-1.99,3.76c0,1.48.65,2.58,1.96,3.31.84.49,2.64,1.06,5.39,1.71l7.13,1.71c3.13.75,5.49,1.75,7.08,3,2.47,1.95,3.71,4.76,3.71,8.45s-1.45,6.92-4.34,9.42c-2.89,2.5-6.98,3.75-12.26,3.75s-9.63-1.23-12.72-3.69c-3.09-2.46-4.63-5.84-4.63-10.15h8.26c.26,1.89.78,3.3,1.54,4.24,1.4,1.7,3.81,2.56,7.22,2.56Z"/>
        <path class="cls-7" d="M384.89,373.37v17.97h-8.17v-18.62c0-1.65-.28-2.98-.84-3.99-.73-1.42-2.12-2.13-4.16-2.13s-3.72.71-4.82,2.12c-1.1,1.41-1.64,3.43-1.64,6.05v16.57h-7.97v-41.25h7.97v14.63c1.16-1.78,2.5-3.02,4.03-3.72,1.53-.7,3.13-1.05,4.82-1.05,1.89,0,3.61.33,5.15.98,1.54.66,2.81,1.66,3.8,3,.84,1.14,1.36,2.32,1.54,3.52.19,1.21.28,3.18.28,5.91Z"/>
        <path class="cls-7" d="M417.89,364.61c2.58,3.24,3.88,7.07,3.88,11.49s-1.29,8.34-3.88,11.53c-2.58,3.19-6.51,4.79-11.77,4.79s-9.18-1.6-11.77-4.79c-2.58-3.19-3.88-7.03-3.88-11.53s1.29-8.25,3.88-11.49c2.58-3.24,6.5-4.86,11.77-4.86s9.18,1.62,11.77,4.86ZM406.09,366.52c-2.34,0-4.14.83-5.41,2.49-1.26,1.66-1.9,4.02-1.9,7.09s.63,5.44,1.9,7.1,3.07,2.5,5.41,2.5,4.14-.83,5.39-2.5c1.25-1.67,1.88-4.03,1.88-7.1s-.63-5.43-1.88-7.09c-1.25-1.66-3.05-2.49-5.39-2.49Z"/>
        <path class="cls-7" d="M453.13,364.02c2.47,2.64,3.71,6.51,3.71,11.63,0,5.39-1.21,9.5-3.64,12.33-2.42,2.83-5.55,4.24-9.37,4.24-2.43,0-4.46-.61-6.07-1.83-.88-.67-1.74-1.66-2.58-2.95v15.95h-7.92v-42.66h7.67v4.52c.86-1.33,1.78-2.38,2.75-3.14,1.78-1.37,3.89-2.05,6.35-2.05,3.58,0,6.61,1.32,9.1,3.96ZM448.58,376.04c0-2.36-.54-4.45-1.62-6.26-1.08-1.82-2.82-2.72-5.24-2.72-2.9,0-4.9,1.38-5.98,4.13-.56,1.46-.84,3.31-.84,5.56,0,3.56.95,6.06,2.84,7.5,1.12.84,2.45,1.26,3.99,1.26,2.23,0,3.93-.86,5.1-2.58,1.17-1.72,1.76-4.02,1.76-6.88Z"/>
      </g>
      <path class="cls-2" d="M296.94,340.66c-7.46,0-13.89-4.54-16.65-11.01h-77.48c-2.76,6.47-9.19,11.01-16.65,11.01h-37.5c-13.58,0-24.63-11.05-24.63-24.63v-47.5c-27.57-29.82-42.63-68.5-42.46-109.23.18-42.66,16.89-82.69,47.05-112.73C158.79,16.54,198.9,0,241.55,0c0,0,0,0,0,0,88.21,0,159.98,71.77,159.98,159.98,0,40.47-15.06,78.9-42.46,108.55v47.5c0,13.58-11.05,24.63-24.63,24.63h-37.5Z"/>
      <path class="cls-7" d="M241.55,7.09c-84.3,0-152.55,67.95-152.9,152.25-.17,41.28,16.02,78.78,42.46,106.39v50.31c0,9.69,7.85,17.54,17.54,17.54h37.5c6.08,0,11.01-4.93,11.01-11.01h0s88.77,0,88.77,0h0c0,6.08,4.93,11.01,11.01,11.01h37.5c9.69,0,17.54-7.85,17.54-17.54v-50.31c26.3-27.46,42.46-64.71,42.46-105.74,0-84.44-68.45-152.9-152.9-152.9Z"/>
      <path class="cls-4" d="M163.06,303.27c-2.42,0-4.56-1.1-6-2.82-3.02,3.59-5.21,9.81-5.84,17.14h23.68c-.63-7.33-2.82-13.55-5.84-17.14-1.44,1.72-3.59,2.82-6,2.82Z"/>
      <path class="cls-3" d="M163.06,287.57c-2.24,0-4.26.95-5.69,2.45l-6.57-.91-6.7-.93c-1.45-.2-2.61,1.17-2.19,2.57l4.41,14.54c.42,1.4,2.15,1.89,3.25.92l7.07-6.28c.13.18.27.35.41.52,1.44,1.72,3.59,2.82,6,2.82s4.56-1.1,6-2.82c.14-.17.29-.34.41-.52l7.07,6.28c1.09.97,2.82.48,3.25-.92l4.41-14.54c.42-1.4-.74-2.77-2.19-2.57l-6.7.93-6.57.91c-1.43-1.51-3.45-2.45-5.69-2.45Z"/>
      <path class="cls-4" d="M320.05,303.27c-2.42,0-4.56-1.1-6-2.82-3.02,3.59-5.21,9.81-5.84,17.14h23.68c-.63-7.33-2.82-13.55-5.84-17.14-1.44,1.72-3.59,2.82-6,2.82Z"/>
      <path class="cls-3" d="M339.01,288.19l-6.7.93-6.57.91c-1.43-1.51-3.45-2.45-5.69-2.45s-4.26.95-5.69,2.45l-6.57-.91-6.7-.93c-1.45-.2-2.61,1.17-2.19,2.57l4.41,14.54c.42,1.4,2.15,1.89,3.25.92l7.07-6.28c.13.18.27.35.41.52,1.44,1.72,3.59,2.82,6,2.82s4.56-1.1,6-2.82c.14-.17.29-.34.41-.52l7.07,6.28c1.09.97,2.82.48,3.25-.92l4.41-14.54c.42-1.4-.74-2.77-2.19-2.57Z"/>
      <path class="cls-1" d="M322.49,180.18c.45.48.9.96,1.37,1.43-.47-.47-.92-.95-1.37-1.43Z"/>
      <path class="cls-1" d="M172.83,232.25c.12-.13.22-.27.34-.41-.11.13-.22.28-.34.41Z"/>
      <path class="cls-1" d="M153.39,184.96c.09-.11.19-.22.28-.33,0,0-.02.01-.03.02-.09.11-.18.21-.25.3Z"/>
      <polygon class="cls-1" points="321.83 179.45 321.82 179.43 321.82 179.43 321.83 179.45"/>
      <path class="cls-1" d="M309.95,231.85c.11.14.22.28.34.41-.12-.13-.22-.27-.34-.41Z"/>
      <path class="cls-3" d="M311.37,233.35c-.38-.34-.74-.71-1.09-1.1-.12-.13-.22-.27-.34-.41-.03-.04-.06-.08-.1-.12-14.3,22.64-39.53,37.69-68.29,37.69s-53.99-15.05-68.29-37.69c-.03.04-.06.08-.1.12-.11.13-.22.28-.34.41-.35.39-.71.76-1.09,1.1,3.83,3,6.39,7.94,6.59,13.57,16.52,15.78,38.76,25.45,63.23,25.45s46.71-9.67,63.23-25.45c.2-5.63,2.76-10.56,6.59-13.57Z"/>
      <path class="cls-4" d="M215.95,168.55c.86.86,1.74,1.69,2.64,2.48-.89-.8-1.77-1.62-2.64-2.48Z"/>
      <path class="cls-4" d="M175.21,141.71c1.02-1.37,2.09-2.7,3.2-4-1.04,1.03-2.12,2-3.24,2.94.01.35.03.7.04,1.06Z"/>
      <path class="cls-4" d="M231.3,179.63c.54.27,1.08.55,1.63.8-.55-.25-1.09-.53-1.63-.8Z"/>
      <path class="cls-4" d="M228.32,178.03c.54.31,1.08.63,1.63.93-.55-.29-1.09-.61-1.63-.93Z"/>
      <path class="cls-4" d="M234.33,181.02c.54.23,1.08.47,1.62.67-.54-.21-1.08-.45-1.62-.67Z"/>
      <path class="cls-4" d="M219.5,171.79c.6.52,1.2,1.04,1.82,1.52-.62-.49-1.22-1.01-1.82-1.52Z"/>
      <path class="cls-4" d="M222.44,174.15c.56.42,1.12.85,1.68,1.24-.57-.4-1.12-.82-1.68-1.24Z"/>
      <path class="cls-4" d="M225.37,176.21c.55.36,1.09.73,1.64,1.07-.55-.34-1.1-.71-1.64-1.07Z"/>
      <path class="cls-4" d="M237.37,182.2c.54.19,1.08.39,1.62.56-.54-.17-1.08-.37-1.62-.56Z"/>
      <path class="cls-4" d="M310.31,158.94c.13.42.26.83.4,1.25-.14-.41-.27-.83-.4-1.25Z"/>
      <path class="cls-4" d="M311.08,161.28c.18.5.36.99.55,1.48-.19-.49-.38-.98-.55-1.48Z"/>
      <path class="cls-4" d="M312.21,164.19c.19.46.39.91.59,1.37-.2-.45-.4-.91-.59-1.37Z"/>
      <path class="cls-4" d="M309.49,156c.15.62.31,1.24.49,1.85-.17-.61-.34-1.23-.49-1.85Z"/>
      <path class="cls-4" d="M318.77,175.7c.46.61.93,1.22,1.41,1.81-.48-.6-.95-1.2-1.41-1.81Z"/>
      <path class="cls-4" d="M317.35,173.69c.29.43.6.86.9,1.29-.31-.43-.61-.86-.9-1.29Z"/>
      <path class="cls-4" d="M315.97,171.53c.26.43.52.85.8,1.27-.27-.42-.54-.84-.8-1.27Z"/>
      <path class="cls-4" d="M313.28,166.58c.2.41.4.82.61,1.23-.21-.41-.41-.82-.61-1.23Z"/>
      <path class="cls-4" d="M314.38,168.77c.35.65.71,1.3,1.08,1.94-.37-.64-.73-1.28-1.08-1.94Z"/>
      <path class="cls-4" d="M321.82,179.43c-.35-.39-.69-.78-1.02-1.18.33.4.67.79,1.02,1.18,0,0,0,0,0,0Z"/>
      <path class="cls-4" d="M277.35,180.51c-.15.04-.29.08-.44.12,0,0,.01,0,.02,0,.14-.04.28-.08.42-.13Z"/>
      <path class="cls-4" d="M269.86,182.02s.06-.03.09-.04c-2.36.24-4.67.78-6.95,1.46-.62.19-1.26.33-1.89.48.32-.08.65-.13.96-.22,2.57-.69,5.16-1.3,7.79-1.68Z"/>
      <path class="cls-4" d="M309.32,186.5c.1-.16.19-.33.3-.5,0,0,0,0,0,0-.1.16-.19.33-.29.49Z"/>
      <path class="cls-4" d="M172.53,207.02c-.65.2-1.31.38-1.96.53,0,0,0,0,0,0,.24.17.47.35.7.54,0,0,.01.01.02.02.22.18.44.37.65.57.01.01.03.02.04.04.2.19.4.39.6.6.02.02.04.04.06.06.14.15.27.3.4.45-.19-.93-.36-1.87-.51-2.81Z"/>
      <path class="cls-4" d="M254.04,184.88c-.51.02-1.02.02-1.54.02.51,0,1.03,0,1.54-.02Z"/>
      <path class="cls-4" d="M285.82,176.76c.5-.31.98-.65,1.45-.99-.48.34-.96.68-1.45.99Z"/>
      <path class="cls-4" d="M308.85,187.32c.05-.09.09-.17.14-.26,0,0,0,0,0,0-.05.09-.09.17-.14.26Z"/>
      <path class="cls-4" d="M310.08,209.82c.88-1.02,1.88-1.91,2.98-2.63-.8-.58-1.53-1.26-2.2-2.02-.21,1.57-.47,3.12-.78,4.65Z"/>
      <path class="cls-4" d="M288,175.27c.7-.53,1.39-1.08,2.04-1.67-.66.59-1.34,1.14-2.04,1.67Z"/>
      <path class="cls-4" d="M240.42,183.17c.54.15,1.08.31,1.62.44-.54-.13-1.08-.29-1.62-.44Z"/>
      <path class="cls-4" d="M278.54,180.15c.48-.16.95-.34,1.42-.52-.47.18-.94.36-1.42.52Z"/>
      <path class="cls-4" d="M249.53,184.78c.52.04,1.05.08,1.56.1-.52-.02-1.04-.06-1.56-.1Z"/>
      <path class="cls-4" d="M255.44,184.79c.5-.04,1.01-.07,1.51-.13-.5.06-1,.09-1.51.13Z"/>
      <path class="cls-4" d="M281.08,179.2c.47-.2.93-.42,1.4-.64-.46.22-.92.44-1.4.64Z"/>
      <path class="cls-4" d="M258.31,184.46c.49-.08.98-.15,1.47-.25-.49.1-.98.17-1.47.25Z"/>
      <path class="cls-4" d="M243.47,183.92c.54.11,1.07.23,1.61.33-.53-.09-1.07-.21-1.61-.33Z"/>
      <path class="cls-4" d="M283.51,178.07c.48-.25.93-.52,1.39-.78-.46.27-.92.54-1.39.78Z"/>
      <path class="cls-4" d="M246.51,184.46c.53.08,1.06.16,1.59.21-.53-.06-1.06-.14-1.59-.21Z"/>
      <path class="cls-4" d="M310.57,184.71s0,0,0,0c.3-.37.62-.71.95-1.04-.43-.19-.84-.42-1.25-.66.11.57.2,1.14.3,1.71Z"/>
      <path class="cls-4" d="M241.55,269.42c28.76,0,53.99-15.05,68.29-37.69-2.01-2.44-3.36-5.59-3.69-9.09-10.5,25.33-35.47,43.16-64.6,43.16s-54.1-17.82-64.6-43.16c-.33,3.5-1.68,6.65-3.69,9.09,14.3,22.64,39.53,37.69,68.29,37.69Z"/>
      <path class="cls-7" d="M241.55,265.8c29.13,0,54.1-17.82,64.6-43.16-.05-.57-.08-1.14-.08-1.72,0-4.33,1.53-8.24,4-11.1.31-1.53.57-3.08.78-4.65-2.34-2.66-3.79-6.33-3.79-10.39,0-.53.03-1.06.08-1.58.01-.15.04-.3.06-.45.04-.37.09-.74.16-1.1.03-.16.07-.31.11-.47.08-.35.16-.69.26-1.03.04-.14.09-.28.14-.42.11-.35.23-.69.36-1.03.05-.12.1-.23.15-.34.15-.35.31-.7.49-1.04.05-.09.09-.17.14-.26,0,0,0,0,0,0,0,0,0,0,0,0,.1-.19.22-.37.33-.55.1-.16.19-.33.29-.49,0,0,0,0,0,0,0,0,0,0,0,0,.04-.05.07-.11.11-.16.25-.37.51-.72.78-1.05.02-.03.04-.05.06-.08-.09-.57-.19-1.14-.3-1.71-4.21-2.5-7.23-7.47-7.72-13.35-1.75-.16-5.59-.02-11.3,2.81,0,0,0,0-.01,0-.39.39-.79.77-1.2,1.13-.66.59-1.34,1.14-2.04,1.67-.24.18-.49.33-.73.5-.48.34-.96.68-1.45.99-.3.19-.61.35-.92.53-.46.27-.92.54-1.39.78-.34.17-.69.33-1.04.49-.46.22-.92.44-1.4.64-.37.15-.75.29-1.12.43-.47.18-.94.36-1.42.52-.39.13-.79.24-1.19.36-.14.04-.28.09-.42.13,4.66.25,9.23,2.67,11.69,7.23-2.32-.8-4.39-1.59-6.44-2.13-6.25-1.85-12.34-.38-18.35,2.13,1.41-2.71,3.55-4.66,6.03-5.85-2.63.38-5.22.99-7.79,1.68-.32.08-.64.14-.96.22-.44.1-.88.21-1.33.3-.49.1-.98.17-1.47.25-.45.07-.91.14-1.36.19-.5.06-1,.09-1.51.13-.46.03-.92.07-1.39.09-.51.02-1.02.02-1.54.02-.47,0-.94,0-1.41-.01-.52-.02-1.04-.06-1.56-.1-.48-.03-.95-.06-1.43-.11-.53-.06-1.06-.14-1.59-.21-.48-.07-.96-.13-1.44-.21-.53-.09-1.07-.21-1.61-.33-.48-.1-.96-.19-1.43-.31-.54-.13-1.08-.29-1.62-.44-.48-.13-.95-.26-1.43-.41-.54-.17-1.08-.37-1.62-.56-.47-.17-.95-.32-1.42-.5-.54-.21-1.08-.45-1.62-.67-.46-.2-.93-.38-1.39-.59-.55-.25-1.09-.53-1.63-.8-.45-.22-.91-.44-1.35-.67-.55-.29-1.09-.61-1.63-.93-.44-.25-.87-.49-1.31-.75-.55-.34-1.1-.71-1.64-1.07-.41-.27-.83-.53-1.24-.81-.57-.4-1.12-.82-1.68-1.24-.38-.28-.76-.55-1.13-.84-.62-.49-1.22-1.01-1.82-1.52-.3-.26-.61-.5-.91-.76-.89-.8-1.77-1.62-2.64-2.48-2.45-2.45-4.62-5.04-6.53-7.73-.17.64-.35,1.28-.54,1.93-2.09,7.07-4.93,13.57-8.3,19.32,6.45-3.11,15.05-1.22,18.7,5.81-6.01-2.51-12.1-3.99-18.35-2.13-1.1.29-2.21.66-3.37,1.06-7.12,10.3-16.01,17.52-25.03,20.23.15.94.32,1.88.51,2.81.05.05.09.1.14.16.03.03.05.07.08.1.17.2.33.41.49.62.03.04.07.09.1.13.15.2.29.41.43.62.04.06.08.12.11.18.13.2.26.41.38.62.04.07.08.15.12.22.11.2.22.41.33.62.04.09.09.18.13.27.1.2.19.4.28.6.05.1.09.21.13.32.08.19.16.39.23.59.04.12.08.25.13.37.06.19.13.38.18.57.04.14.08.29.12.43.05.18.1.36.14.54.04.16.07.32.1.49.04.17.07.34.1.51.03.18.06.37.08.56.02.16.05.31.07.47.03.22.04.44.06.66.01.13.03.25.03.38.02.35.03.71.03,1.07,0,.58-.03,1.16-.08,1.72,10.5,25.33,35.47,43.16,64.6,43.16ZM273.07,194.58c1.81,0,3.53.32,5.09.88,0-.03.01-.05.01-.05.09.06.18.11.27.16.79.3,1.54.67,2.24,1.1.93.57,1.94.99,2.98,1.32,2.25.73,4.63,1.11,6.99,1.07,1.54-.07,3.1-.4,4.66-1.01-2.15,2.72-5.44,4.57-8.8,5.63-.15.05-.3.08-.46.13.17.72.26,1.47.26,2.24,0,6.33-5.93,11.47-13.25,11.47s-13.25-5.14-13.25-11.47,5.93-11.47,13.25-11.47ZM241.55,215.41l9.18,10.31h-18.36l9.18-10.31ZM241.55,252.15c1.19,0,2.36-.08,3.5-.21.37-1.62.92-3.33,1.69-5.06,3-6.78,7.89-11.18,10.91-9.84,1.96.87,2.65,3.96,2.07,7.86,2.07-2.37,3.27-5.18,3.27-8.18,0-.4.32-.72.72-.72s.72.32.72.72c0,9.3-10.27,16.87-22.89,16.87s-22.89-7.57-22.89-16.87c0-.4.32-.72.72-.72s.72.32.72.72c0,8.51,9.62,15.43,21.45,15.43ZM187.79,198.06c1.56.61,3.12.94,4.66,1.01,2.36.04,4.73-.34,6.99-1.07,1.04-.33,2.05-.75,2.98-1.32.7-.43,1.45-.79,2.24-1.1.09-.06.19-.11.27-.16,0,0,0,.02.01.05,1.57-.57,3.29-.88,5.09-.88,7.32,0,13.25,5.14,13.25,11.47s-5.93,11.47-13.25,11.47-13.25-5.14-13.25-11.47c0-.77.09-1.51.26-2.24-.15-.04-.3-.08-.46-.13-3.36-1.06-6.64-2.91-8.8-5.63Z"/>
      <polygon class="cls-6" points="241.55 215.41 232.38 225.72 250.73 225.72 241.55 215.41"/>
      <path class="cls-4" d="M273.07,217.52c7.32,0,13.25-5.14,13.25-11.47,0-.77-.09-1.51-.26-2.24.15-.04.3-.08.46-.13,3.36-1.06,6.64-2.91,8.8-5.63-1.56.61-3.12.94-4.66,1.01-2.36.04-4.73-.34-6.99-1.07-1.04-.33-2.05-.75-2.98-1.32-.7-.43-1.45-.79-2.24-1.1-.09-.06-.19-.11-.27-.16,0,0,0,.02-.01.05-1.57-.57-3.29-.88-5.09-.88-7.32,0-13.25,5.14-13.25,11.47s5.93,11.47,13.25,11.47Z"/>
      <path class="cls-4" d="M263.83,187.87c6.01-2.51,12.1-3.99,18.35-2.13,2.04.54,4.11,1.33,6.44,2.13-2.46-4.56-7.03-6.99-11.69-7.23,0,0-.01,0-.02,0-2.39-.12-4.8.32-6.97,1.34-.03.01-.06.03-.09.04-2.47,1.19-4.62,3.14-6.03,5.85Z"/>
      <path class="cls-4" d="M197.04,203.82c-.17.72-.26,1.47-.26,2.24,0,6.33,5.93,11.47,13.25,11.47s13.25-5.14,13.25-11.47-5.93-11.47-13.25-11.47c-1.81,0-3.53.32-5.09.88,0-.03-.01-.05-.01-.05-.09.06-.18.11-.27.16-.79.3-1.54.67-2.24,1.1-.93.57-1.94.99-2.98,1.32-2.25.73-4.63,1.11-6.99,1.07-1.54-.07-3.1-.4-4.66-1.01,2.15,2.72,5.44,4.57,8.8,5.63.15.05.3.08.46.13Z"/>
      <path class="cls-4" d="M200.93,185.74c6.25-1.85,12.34-.38,18.35,2.13-3.65-7.03-12.25-8.92-18.7-5.81-2.48,1.2-4.65,3.14-6.09,5.81,1.07-.37,2.08-.73,3.07-1.08,1.15-.4,2.27-.77,3.37-1.06Z"/>
      <path class="cls-5" d="M251.75,250.23s2.1-4.72,2.1-7.49c0-.4.32-.72.72-.72s.72.32.72.72c0,2.11-1,5.03-1.66,6.72,2.44-1.2,4.53-2.76,6.1-4.57.58-3.91-.11-6.99-2.07-7.86-3.02-1.34-7.91,3.07-10.91,9.84-.77,1.73-1.32,3.44-1.69,5.06,2.38-.28,4.63-.84,6.68-1.64,0-.02,0-.04.01-.06Z"/>
      <path class="cls-4" d="M219.38,236c-.4,0-.72.32-.72.72,0,9.3,10.27,16.87,22.89,16.87s22.89-7.57,22.89-16.87c0-.4-.32-.72-.72-.72s-.72.32-.72.72c0,3-1.2,5.81-3.27,8.18-1.58,1.81-3.66,3.36-6.1,4.57.66-1.69,1.66-4.61,1.66-6.72,0-.4-.32-.72-.72-.72s-.72.32-.72.72c0,2.77-2.08,7.44-2.1,7.49,0,.02,0,.04-.01.06-2.05.8-4.3,1.36-6.68,1.64-1.14.14-2.31.21-3.5.21-11.83,0-21.45-6.92-21.45-15.43,0-.4-.32-.72-.72-.72Z"/>
      <path class="cls-3" d="M150.58,190.77c.08-.32.16-.64.26-.96.04-.13.09-.25.13-.37.11-.31.21-.62.34-.91.04-.11.09-.21.14-.31.14-.31.28-.62.44-.93.04-.08.08-.15.12-.23.18-.33.36-.65.56-.95.03-.04.06-.09.09-.13.22-.34.46-.67.71-.99,0,0,.02-.02.02-.03.07-.09.16-.2.25-.3,0,0,.02-.01.03-.02.43-.47,1.27-.68,2.01-.78,1.01-.13,1.95-.62,2.67-1.34l.59-.59c10.73-10.65,16.57-25.21,16.27-40.22,0-.35-.02-.7-.04-1.06-4.21,3.55-8.96,6.51-14.15,8.7l-2.42,1.02-6.75-6.1c-2.73-2.46-4.65-5.49-5.77-8.74-2.94,2.32-5.3,5.43-6.68,9.2l-3.32,9.07c-3.98,10.85,1.6,22.87,12.45,26.85l.73.27c.1,3.92.42,7.79.97,11.58.06-.46.15-.92.25-1.36.03-.13.07-.25.1-.37Z"/>
      <path class="cls-3" d="M334.58,180.66c10.85-3.98,16.42-15.99,12.45-26.85l-3.32-9.07c-1.38-3.77-3.74-6.88-6.68-9.2-1.11,3.25-3.04,6.27-5.76,8.73l-6.75,6.1-2.42-1.02c-5.19-2.19-9.94-5.14-14.15-8.7-.01.35-.03.71-.04,1.06-.09,4.42.37,8.79,1.31,13.04.09.42.18.83.29,1.25.15.62.31,1.24.49,1.85.1.37.22.73.33,1.09.13.42.26.83.4,1.25.12.36.24.73.37,1.09.18.5.36.99.55,1.48.19.48.38.96.58,1.43.19.46.39.91.59,1.37.16.34.32.68.48,1.03.2.41.4.82.61,1.23.16.32.32.64.49.96.35.65.71,1.3,1.08,1.94.16.28.34.55.51.83.26.43.52.85.8,1.27.19.3.39.59.59.89.29.43.6.86.9,1.29.17.24.34.48.52.72.46.61.93,1.22,1.41,1.81.2.25.41.49.61.74.33.4.67.79,1.02,1.18,0,0,0,0,0,.01.22.25.44.49.66.74.45.48.9.96,1.37,1.43.1.11.2.22.31.32l.59.59c.72.72,1.66,1.21,2.67,1.34.75.1,1.61.31,2.03.8.09.11.18.21.25.3,0,0,.02.02.02.03.25.32.48.65.71.99.03.04.06.09.09.13.2.31.38.63.56.95.04.08.08.15.12.23.16.3.3.61.44.93.05.1.09.21.14.31.12.3.23.6.34.91.04.12.09.25.13.37.1.31.18.63.26.96.03.12.07.24.1.37.1.45.18.9.25,1.36,0,0,0,0,0-.01.55-3.79.87-7.65.97-11.57l.73-.27Z"/>
      <path class="cls-3" d="M164.66,117.53l4.37,7.98,2.62-.16c6.39-.4,12.58-1.92,18.33-4.4,6.68-2.88,12.76-7.07,17.87-12.36-4.94.72-10,.78-15.06.13l-2.61-.34-2.77-8.67c-1.98-6.2-.92-12.64,2.35-17.71-2.83.23-5.66,1.03-8.32,2.49l-8.47,4.64c-5.55,3.04-9.16,8.22-10.4,13.96-1.02,4.74-.43,9.85,2.08,14.44Z"/>
      <path class="cls-3" d="M295.7,99.71l-2.77,8.67-2.61.34c-5.05.65-10.12.6-15.06-.13,5.1,5.29,11.18,9.48,17.87,12.36,5.75,2.47,11.93,3.99,18.33,4.4l2.62.16,4.37-7.98c2.51-4.59,3.11-9.7,2.08-14.44-1.24-5.73-4.85-10.92-10.4-13.96l-8.47-4.64c-2.65-1.45-5.48-2.25-8.32-2.49,3.27,5.07,4.33,11.51,2.35,17.71Z"/>
      <path class="cls-4" d="M322.09,149.35l2.42,1.02,6.75-6.1c2.73-2.46,4.65-5.48,5.76-8.73,2.39-6.96,1.03-14.97-4.25-20.82l-6.47-7.17c-1.69-1.88-3.66-3.35-5.77-4.47,1.02,4.74.43,9.85-2.08,14.44l-4.37,7.98-2.62-.16c-6.39-.4-12.58-1.92-18.33-4.4-6.68-2.88-12.76-7.07-17.87-12.36,4.94.72,10,.78,15.06.13l2.61-.34,2.77-8.67c1.98-6.2.92-12.64-2.35-17.71-2.54-3.94-6.41-7.05-11.22-8.59l-9.2-2.94c-4.48-1.43-9.08-1.25-13.21.18,4.63,3.84,7.58,9.63,7.58,16.12v9.1l-2.38,1.11c-3.53,1.65-7.19,2.9-10.92,3.76-8.19,1.9-16.71,1.9-24.9,0-3.73-.86-7.39-2.11-10.92-3.76l-2.38-1.11v-9.1c0-6.48,2.95-12.28,7.58-16.12-4.13-1.43-8.73-1.61-13.21-.18l-9.2,2.94c-4.81,1.54-8.68,4.65-11.22,8.59-3.27,5.07-4.33,11.51-2.35,17.71l2.77,8.67,2.61.34c5.05.65,10.12.6,15.06-.13-5.1,5.29-11.18,9.48-17.87,12.36-5.75,2.47-11.93,3.99-18.33,4.4l-2.62.16-4.37-7.98c-2.51-4.59-3.11-9.7-2.08-14.44-2.11,1.12-4.08,2.59-5.77,4.47l-6.47,7.17c-5.28,5.85-6.64,13.86-4.25,20.82,1.11,3.25,3.04,6.27,5.77,8.74l6.75,6.1,2.42-1.02c5.19-2.19,9.94-5.14,14.15-8.7,1.12-.94,2.2-1.91,3.24-2.94-1.11,1.3-2.18,2.63-3.2,4,.3,15.01-5.54,29.57-16.27,40.22l-.59.59c-.72.72-1.66,1.21-2.67,1.34-.74.09-1.57.31-2.01.78-.09.11-.19.21-.28.33,0,0-.02.02-.02.03-.25.32-.48.65-.71.99-.03.04-.06.09-.09.13-.2.31-.38.63-.56.95-.04.08-.08.15-.12.23-.16.3-.3.61-.44.93-.05.1-.09.21-.14.31-.12.3-.23.6-.34.91-.04.12-.09.25-.13.37-.1.31-.18.63-.26.96-.03.12-.07.24-.1.37-.1.45-.18.9-.25,1.36-.1.74-.17,1.5-.17,2.27,0,3.18.89,6.12,2.4,8.52.97,1.54,2.18,2.86,3.59,3.89-.69.46-1.34.98-1.96,1.56-3.07,2.91-5.02,7.28-5.02,12.17s2.07,9.53,5.3,12.43c-3.99,3.13-6.61,8.36-6.61,14.28,0,6.83,3.47,12.73,8.52,15.56-5.05,2.83-8.52,8.74-8.52,15.56,0,3.88,1.12,7.47,3.02,10.36l6.57.91c1.43-1.51,3.45-2.45,5.69-2.45s4.26.95,5.69,2.45l6.57-.91c1.9-2.89,3.02-6.48,3.02-10.36,0-6.83-3.47-12.73-8.52-15.56,5.05-2.83,8.52-8.74,8.52-15.56,0-.24-.01-.48-.02-.72-.2-5.63-2.76-10.56-6.59-13.57.38-.34.74-.71,1.09-1.1.12-.13.22-.27.34-.41.03-.04.07-.08.1-.12,2.01-2.44,3.36-5.59,3.69-9.09.05-.57.08-1.14.08-1.72,0-.36-.01-.71-.03-1.07,0-.13-.02-.26-.03-.38-.02-.22-.03-.45-.06-.66-.02-.16-.04-.31-.07-.47-.03-.19-.05-.37-.08-.56-.03-.17-.07-.34-.1-.51-.03-.16-.06-.33-.1-.49-.04-.18-.09-.36-.14-.54-.04-.14-.08-.29-.12-.43-.06-.19-.12-.38-.18-.57-.04-.12-.08-.25-.13-.37-.07-.2-.15-.39-.23-.59-.04-.11-.08-.21-.13-.32-.09-.2-.18-.41-.28-.6-.04-.09-.08-.18-.13-.27-.1-.21-.21-.41-.33-.62-.04-.07-.08-.15-.12-.22-.12-.21-.25-.42-.38-.62-.04-.06-.08-.12-.11-.18-.14-.21-.28-.42-.43-.62-.03-.04-.07-.09-.1-.13-.16-.21-.32-.42-.49-.62-.03-.03-.05-.07-.08-.1-.05-.05-.09-.1-.14-.16-.13-.15-.26-.31-.4-.45-.02-.02-.04-.04-.06-.06-.19-.2-.39-.4-.6-.6-.01-.01-.03-.02-.04-.04-.21-.2-.43-.39-.65-.57,0,0-.01-.01-.02-.02-.23-.19-.46-.37-.7-.54,0,0,0,0,0,0,.65-.15,1.31-.33,1.96-.53,9.02-2.71,17.91-9.93,25.03-20.23-.99.34-2,.71-3.07,1.08,1.44-2.67,3.61-4.61,6.09-5.81,3.37-5.74,6.22-12.25,8.3-19.32.19-.64.36-1.28.54-1.93,1.91,2.69,4.08,5.28,6.53,7.73.86.86,1.74,1.69,2.64,2.48.3.27.61.51.91.76.6.52,1.2,1.04,1.82,1.52.37.29.75.56,1.13.84.56.42,1.12.85,1.68,1.24.41.28.83.54,1.24.81.55.36,1.09.73,1.64,1.07.43.26.87.5,1.31.75.54.31,1.08.63,1.63.93.45.24.9.45,1.35.67.54.27,1.08.55,1.63.8.46.21.93.4,1.39.59.54.23,1.08.47,1.62.67.47.18.94.34,1.42.5.54.19,1.08.39,1.62.56.48.15.95.27,1.43.41.54.15,1.08.31,1.62.44.48.12.96.21,1.43.31.54.11,1.07.23,1.61.33.48.08.96.15,1.44.21.53.08,1.06.16,1.59.21.48.05.95.08,1.43.11.52.04,1.05.08,1.56.1.47.02.94.01,1.41.01.51,0,1.03,0,1.54-.02.47-.02.93-.06,1.39-.09.5-.04,1.01-.07,1.51-.13.46-.05.91-.12,1.36-.19.49-.08.98-.15,1.47-.25.45-.09.89-.19,1.33-.3.63-.15,1.27-.29,1.89-.48,2.27-.68,4.59-1.22,6.95-1.46,2.17-1.02,4.58-1.47,6.97-1.34.15-.04.29-.08.44-.12.4-.12.8-.23,1.19-.36.48-.16.95-.34,1.42-.52.37-.14.75-.27,1.12-.43.47-.2.93-.42,1.4-.64.35-.16.7-.32,1.04-.49.48-.25.93-.52,1.39-.78.31-.18.62-.34.92-.53.5-.31.98-.65,1.45-.99.24-.17.49-.32.73-.5.7-.53,1.39-1.08,2.04-1.67.41-.37.81-.75,1.2-1.13,0,0,0,0,.01,0,5.71-2.83,9.55-2.96,11.3-2.81.49,5.88,3.51,10.85,7.72,13.35.41.24.82.47,1.25.66-.33.33-.65.68-.95,1.04,0,0,0,0,0,0-.02.03-.04.05-.06.08-.27.34-.53.69-.78,1.05-.04.05-.07.11-.11.16,0,0,0,0,0,0-.11.16-.2.33-.3.5-.11.18-.23.37-.33.55,0,0,0,0,0,0-.05.09-.09.17-.14.26-.17.34-.34.68-.49,1.04-.05.11-.1.23-.15.34-.13.34-.25.68-.36,1.03-.05.14-.09.28-.14.42-.1.34-.18.68-.26,1.03-.03.16-.08.31-.11.47-.07.36-.12.73-.16,1.1-.02.15-.05.3-.06.45-.05.52-.08,1.05-.08,1.58,0,4.06,1.45,7.73,3.79,10.39.67.76,1.4,1.44,2.2,2.02-1.1.72-2.09,1.61-2.98,2.63-2.47,2.86-4,6.78-4,11.1,0,.58.03,1.16.08,1.72.33,3.5,1.68,6.65,3.69,9.09.03.04.06.08.1.12.11.13.22.28.34.41.35.39.71.75,1.09,1.1-3.83,3-6.39,7.94-6.59,13.57,0,.24-.02.48-.02.72,0,6.83,3.47,12.73,8.52,15.56-5.05,2.83-8.52,8.74-8.52,15.56,0,3.88,1.12,7.47,3.02,10.36l6.57.91c1.43-1.51,3.45-2.45,5.69-2.45s4.26.95,5.69,2.45l6.57-.91c1.9-2.89,3.02-6.48,3.02-10.36,0-6.83-3.47-12.73-8.52-15.56,5.05-2.83,8.52-8.74,8.52-15.56,0-5.92-2.62-11.15-6.61-14.28,3.23-2.91,5.3-7.39,5.3-12.43s-1.96-9.26-5.02-12.17c-.61-.58-1.26-1.11-1.96-1.56,1.41-1.02,2.62-2.35,3.59-3.89,1.51-2.41,2.4-5.34,2.4-8.52,0-.77-.07-1.53-.17-2.27,0,0,0,0,0-.01,0,0,0,0,0,.01-.06-.46-.15-.92-.25-1.36-.03-.13-.07-.25-.1-.37-.08-.32-.16-.64-.26-.96-.04-.13-.09-.25-.13-.37-.11-.31-.22-.61-.34-.91-.04-.11-.09-.21-.14-.31-.14-.31-.28-.62-.44-.93-.04-.08-.08-.15-.12-.23-.18-.33-.36-.65-.56-.95-.03-.04-.06-.09-.09-.13-.22-.34-.46-.67-.71-.99,0,0-.02-.02-.02-.03-.07-.09-.16-.2-.25-.3-.43-.49-1.28-.7-2.03-.8-1.01-.13-1.95-.62-2.67-1.34l-.59-.59c-.11-.1-.2-.22-.31-.32-.47-.47-.92-.95-1.37-1.43-.22-.24-.44-.49-.66-.74,0,0,0,0,0-.01-.35-.39-.69-.78-1.02-1.18-.21-.24-.41-.49-.61-.74-.48-.6-.95-1.2-1.41-1.81-.18-.24-.34-.48-.52-.72-.31-.43-.61-.86-.9-1.29-.2-.29-.39-.59-.59-.89-.27-.42-.54-.84-.8-1.27-.17-.28-.34-.55-.51-.83-.37-.64-.73-1.28-1.08-1.94-.17-.32-.33-.64-.49-.96-.21-.41-.41-.82-.61-1.23-.16-.34-.32-.68-.48-1.03-.2-.45-.4-.91-.59-1.37-.2-.47-.39-.95-.58-1.43-.19-.49-.38-.98-.55-1.48-.13-.36-.25-.73-.37-1.09-.14-.41-.27-.83-.4-1.25-.11-.36-.22-.73-.33-1.09-.17-.61-.34-1.23-.49-1.85-.1-.41-.19-.83-.29-1.25-.94-4.25-1.4-8.63-1.31-13.04,0-.35.02-.71.04-1.06,4.21,3.56,8.96,6.51,14.15,8.7Z"/>
      <path class="cls-3" d="M215.8,86.78v9.1l2.38,1.11c3.53,1.65,7.19,2.9,10.92,3.76,8.19,1.9,16.71,1.9,24.9,0,3.73-.86,7.39-2.11,10.92-3.76l2.38-1.11v-9.1c0-6.48-2.95-12.28-7.58-16.12-3.62-3-8.27-4.81-13.34-4.81h-9.66c-5.07,0-9.72,1.81-13.34,4.81-4.63,3.84-7.58,9.63-7.58,16.12Z"/>
      <g>
        <path class="cls-2" d="M133.7,224.92c2.31-1.11,2.31-1.65,2.01-2.87-.18-.82.1-1.96,1.16-2.46,1.29-.62,2.17-.21,2.94,1.4.49,1.02.32,1.57,1.17,3.33.86,1.78,1.45,2.11,1.88,3.02.77,1.61.55,2.58-.73,3.2-1.05.5-2.13-.02-2.63-.68-1.05-1.37-1.12-1.51-3.58-.33l-7.93,3.8c-2.28,1.09-2.43,1.17-1.95,2.99.2.8-.09,1.99-1.14,2.49-1.29.62-2.18.18-2.95-1.43-.48-1-.68-2.16-2.85-6.69-.52-1.08-.53-2.45.44-3.66,2.56-3.21,9.29-7.41,9.05-7.91-.22-.47-7.67,2.1-11.66,2.32-1.58.08-2.57-.64-3.08-1.69-2.18-4.53-3.04-5.59-3.52-6.59-.77-1.61-.55-2.58.73-3.2,1.05-.51,2.16,0,2.66.67,1.12,1.51,1.27,1.44,3.55.35l7.93-3.8c2.46-1.18,2.39-1.33,1.98-3-.2-.8.06-1.97,1.11-2.48,1.29-.62,2.18-.18,2.95,1.43.44.91.32,1.57,1.18,3.36.84,1.75,1.38,1.97,1.87,2.99.76,1.58.54,2.55-.75,3.17-1.05.51-2.12,0-2.65-.64-.77-1-1.18-1.34-3.49-.23l-9.21,4.42c.24.5,7.62-.92,11.03-1.62,2.13-.44,4.92-1.6,6.33,1.35,1.4,2.92-1.32,4.38-2.82,5.82-2.89,2.75-8.46,7.12-8.22,7.62l9.21-4.42Z"/>
        <path class="cls-2" d="M121.69,193.27c2.48-.64,2.64-.68,2.48-2.58-.05-.83.48-1.9,1.61-2.19,1.38-.36,2.17.21,2.61,1.94.28,1.1.09,1.92.57,3.77.49,1.92,1.09,2.67,1.34,3.64.44,1.73.04,2.64-1.34,2.99-1.13.29-2.09-.43-2.45-1.18-.77-1.54-.81-1.7-3.45-1.02l-8.51,2.19c-2.45.63-2.61.67-2.49,2.55.04.83-.47,1.93-1.61,2.22-1.38.36-2.17-.24-2.62-1.97-.27-1.07-.09-1.92-.59-3.84-.47-1.82-1.06-2.57-1.32-3.58-.44-1.73-.03-2.6,1.35-2.96,1.13-.29,2.05.41,2.44,1.15.81,1.57.85,1.73,3.45,1.05l8.51-2.19Z"/>
        <path class="cls-2" d="M108.45,170.26c1.84-.2,3.53.66,3.79,3.02.23,2.1-1.09,2.01-1.73,2.11-1.93.27-3.32,1.28-3.01,4.11.36,3.32,2.47,4.07,7.47,3.53,6.35-.69,7.22-2.65,6.95-5.13-.36-3.32-2.27-3.51-3.67-3.39-.68.04-1.95.11-2.18-2.08-.27-2.45,1.23-3.4,2.75-3.56,2.23-.24,6.9.98,7.7,8.33.87,8-4.15,11.03-10.25,11.69-7.65.83-12.45-2.53-13.2-9.4-.66-6.03,2.42-8.91,5.39-9.24Z"/>
        <path class="cls-2" d="M116.75,150.63l-.63,7.24,2.52.22c2.55.22,2.78.21,3.15-1,.26-.79,1.08-1.63,2.25-1.53,1.42.12,1.97.92,1.82,2.7-.1,1.13-.52,1.52-.69,3.46-.17,1.97.17,2.55.08,3.56-.15,1.78-.83,2.5-2.26,2.38-1.16-.1-1.83-1.1-1.92-1.92-.21-1.71-.2-1.87-2.91-2.11l-8.76-.76c-2.52-.22-2.68-.23-3.2,1.58-.23.79-1.09,1.66-2.25,1.56-1.42-.12-1.97-.95-1.82-2.73.09-1.1.52-1.52.69-3.49.17-1.91-.18-2.49-.09-3.52.15-1.78.83-2.47,2.25-2.35,1.16.1,1.76,1.06,1.92,1.89.25,1.19.28,1.29,2.96,1.53l2,.17.63-7.24-2-.17c-2.68-.23-2.72-.14-3.18,1-.29.76-1.05,1.63-2.22,1.53-1.42-.12-1.97-.95-1.82-2.7.09-1.03.52-1.55.69-3.46.17-1.97-.18-2.46-.08-3.59.15-1.78.83-2.47,2.25-2.34,1.16.1,1.86,1.1,1.95,1.93.2,1.87.36,1.89,2.88,2.1l8.76.76c2.71.23,2.73.07,3.23-1.58.23-.79,1.06-1.67,2.22-1.57,1.42.12,1.97.92,1.82,2.7-.09,1.03-.52,1.55-.69,3.52-.16,1.91.18,2.39.09,3.52-.15,1.75-.83,2.47-2.25,2.34-1.16-.1-1.83-1.1-1.95-1.89-.15-1.25-.38-1.3-2.93-1.52l-2.52-.22Z"/>
        <path class="cls-2" d="M122.37,118.65c6.81,2.02,10.34,6.66,8.3,13.53-1.85,6.22-6.88,9.02-14.34,6.8-7.28-2.16-10.11-7.2-8.23-13.52,1.9-6.38,7.1-8.96,14.28-6.82ZM120.6,124.48c-5.78-1.72-7.14-1.04-8.13,2.29-.98,3.3-.22,4.61,5.57,6.33,5.75,1.71,7.17,1.05,8.15-2.25.99-3.33.17-4.66-5.59-6.37Z"/>
        <path class="cls-2" d="M133.18,105.21l-3.11,5.95c.73.64,1.27,1.07,1.88,1.38.98.51,1.39.14,1.94-.49.58-.61,1.56-1.16,2.77-.53,1.18.62,1.32,1.68.58,3.09-.59,1.12-1.02,1.11-1.94,2.87-.93,1.78-.69,2.16-1.28,3.29-.77,1.47-1.73,1.84-2.94,1.21-1.93-1.01-.59-2.51-1.57-3.86-.41-.62-2.57-2.99-5.08-5.47-2.27-2.25-4.82-4.5-6.38-6.78-1.27-1.84-1.2-2.6.06-5.02,1.32-2.53,1.94-3.01,4.06-3.08,2.99-.05,6.28.8,9.32,1.36,2.99.58,5.83,1.03,6.51,1.13.07,0,.1.02.13.03,2.31.4,2.89-1.96,4.85-.94,1.12.59,1.39,1.61.61,3.1-.57,1.09-1.02,1.11-1.95,2.9s-.78,2.34-1.38,3.49c-.75,1.44-1.69,1.9-2.9,1.27-1.06-.56-1.35-1.48-1.17-2.44.2-.81.21-1.17-.65-1.62-.66-.35-1.33-.55-2.35-.83ZM126.95,108.32l2.18-4.17c-2.99-.72-7.33-1.67-7.52-1.3-.2.37,3.22,3.51,5.34,5.47Z"/>
        <path class="cls-2" d="M143.94,74.56c1.44,1.16,2.03,2.97.54,4.81-1.32,1.64-2.19.65-2.72.27-1.56-1.17-3.25-1.45-5.04.78-2.1,2.6-1.14,4.62,2.78,7.78,4.98,4.01,6.97,3.24,8.54,1.29,2.1-2.6.87-4.09-.19-4.99-.51-.45-1.46-1.3-.07-3.02,1.55-1.92,3.27-1.53,4.46-.58,1.74,1.4,4.18,5.57-.46,11.34-5.04,6.27-10.74,4.86-15.52,1.01-5.99-4.82-7.01-10.6-2.68-15.98,3.8-4.73,8.02-4.58,10.35-2.71Z"/>
        <path class="cls-2" d="M164.06,68.58l-5.13,4.33c.43.87.77,1.47,1.21,1.99.71.84,1.23.66,1.98.28.77-.35,1.88-.49,2.76.56.86,1.02.59,2.05-.63,3.08-.97.82-1.37.64-2.88,1.92-1.54,1.3-1.46,1.74-2.43,2.56-1.26,1.07-2.3,1.05-3.18,0-1.4-1.66.4-2.55,0-4.17-.15-.73-1.25-3.74-2.63-6.99-1.25-2.94-2.76-5.99-3.34-8.69-.48-2.18-.13-2.87,1.96-4.62,2.18-1.84,2.94-2.05,4.92-1.31,2.79,1.09,5.52,3.11,8.12,4.78,2.55,1.67,5.01,3.16,5.6,3.51.07.03.09.05.11.08,1.99,1.25,3.42-.72,4.85.96.82.97.68,2.01-.61,3.1-.94.8-1.37.64-2.9,1.94s-1.61,1.87-2.6,2.71c-1.24,1.05-2.28,1.12-3.16.08-.77-.92-.69-1.88-.16-2.71.49-.67.64-1.01,0-1.75-.48-.57-1.02-1.01-1.86-1.65ZM157.11,69.1l3.6-3.04c-2.5-1.8-6.15-4.32-6.47-4.05-.32.27,1.65,4.47,2.88,7.08Z"/>
        <path class="cls-2" d="M185.5,45.69c-1.24-2.39-1.32-2.39-2.52-2.16-.82.17-2.09.06-2.63-.97-.66-1.27-.28-2.16,1.27-2.97.95-.5,1.73-.46,3.06-1.15,1.5-.78,1.63-1.29,2.61-1.8,1.58-.83,2.56-.64,3.22.63.54,1.04.07,2.16-.58,2.68-1.47,1.17-1.4,1.31-.23,3.56l5.94,11.39c1.25,2.39.31,3.46-1.94,4.63-1.47.76-2.94,1.09-4.83-.08-5.06-3.11-12.67-10.26-13.21-9.98l4.62,8.86c1.19,2.27,1.32,2.46,2.53,2.12.81-.2,2.1-.04,2.64,1,.66,1.27.28,2.16-1.3,2.98-1.01.52-1.65.42-3,1.12-1.44.75-1.75,1.35-2.64,1.81-1.58.82-2.56.64-3.22-.63-.54-1.04-.05-2.13.59-2.65,1.33-1.1,1.47-1.17.21-3.59l-4.06-7.79c-1.17-2.24-1.24-2.39-3.05-1.85-.79.23-1.99-.02-2.53-1.06-.66-1.27-.25-2.17,1.33-3,.98-.51,2.19-.71,6.68-3.04,1.52-.79,2.79-.4,3.98.56,3.71,2.97,10.35,9.05,10.9,8.77l-3.85-7.39Z"/>
        <path class="cls-2" d="M221.19,43.01l-6.6,1.26c-.05.97-.05,1.66.08,2.33.21,1.08.75,1.18,1.59,1.22.84.07,1.88.5,2.14,1.84.25,1.31-.5,2.08-2.06,2.38-1.24.24-1.51-.11-3.45.26-1.98.38-2.13.8-3.37,1.04-1.63.31-2.52-.21-2.77-1.55-.41-2.14,1.6-2.02,2.05-3.63.23-.7.75-3.88,1.13-7.39.35-3.17.53-6.58,1.35-9.21.65-2.14,1.3-2.56,3.97-3.07,2.81-.54,3.57-.35,4.93,1.27,1.9,2.31,3.28,5.42,4.73,8.15,1.41,2.7,2.81,5.21,3.16,5.81.04.06.05.09.06.12,1.12,2.07,3.34,1.05,3.75,3.21.24,1.24-.39,2.09-2.05,2.41-1.21.23-1.51-.11-3.48.27-1.98.38-2.32.84-3.59,1.08-1.59.3-2.54-.14-2.79-1.48-.23-1.18.32-1.98,1.19-2.44.76-.34,1.05-.56.87-1.52-.14-.73-.4-1.38-.81-2.36ZM214.88,40.05l4.62-.88c-1.29-2.79-3.24-6.78-3.66-6.7s-.75,4.7-.96,7.58Z"/>
        <path class="cls-2" d="M250.99,41.25c-.78-.06-1.24.04-1.28.59l-.04.55c-.21,2.72.4,2.93,2.26,3.26.83.16,1.67.71,1.56,2.2-.11,1.42-.9,1.98-2.68,1.85-1.04-.08-2.17-.55-4.08-.7-1.97-.15-3.07.16-4.17.08-1.78-.13-2.51-.81-2.4-2.23.09-1.16,1.08-1.87,1.91-1.97,1.87-.18,1.88-.35,2.07-2.9l.66-8.77c.2-2.69.04-2.7-1.61-3.21-.8-.22-1.68-1.04-1.59-2.2.11-1.42.93-1.98,2.71-1.85,1,.08,2.4.57,3.56.66,2.13.16,3.75-.11,5.46.02,5.4.41,8.92,3.31,8.54,8.45-.1,1.26-1.05,7.01-8.07,6.48-1.13-.09-2.1-.26-2.81-.31ZM250.43,32.3l-.31,4.11c-.05.71.09,1.02,1.96,1.16,2.78.21,3.56-.15,3.77-2.94.23-3.04-.23-3.47-3.72-3.73-1.26-.1-1.63.5-1.7,1.4Z"/>
        <path class="cls-2" d="M271.31,45.74c-.65,2.48.14,3.02,1.96,3.5,4.02,1.06,4.42.16,4.79-1.22.12-.47.07-1.02.2-1.52.29-1.1,1.26-2.62,3.18-2.11,1.95.51,2.25,2.67,1.83,4.24-1.31,4.96-2.38,7.09-4.48,6.54-1.69-.45-2.29-1.01-7.65-2.42-4.3-1.14-6.97-1.44-8.04-1.72-1.72-.46-2.32-1.25-1.96-2.63.3-1.13,1.41-1.64,2.23-1.59,1.87.16,1.91,0,2.57-2.48l2.25-8.5c.69-2.6.53-2.65-1-3.45-.74-.36-1.46-1.33-1.16-2.46.37-1.38,1.28-1.78,3-1.32.97.26,2.79,1.14,8.06,2.53,4.67,1.23,5.65,1.09,7.32,1.53,2.38.63,2.09,1.76.78,6.72-.49,1.85-1.46,3-3.41,2.49-1.69-.45-2.21-1.56-2-2.34.13-.5.51-1.17.63-1.61.41-1.54.26-1.74-4.1-2.9-1.82-.48-2.09-.22-2.74,2.23-.48,1.82-.37,2.05.85,2.37.66.17,1.48.22,2.33.45,1.54.41,2.05,1.25,1.66,2.72-.32,1.22-1.46,1.59-2.36,1.56-1.86-.09-3.96-1.52-4.5.52l-.23.88Z"/>
        <path class="cls-2" d="M284.33,57.13c-1.6-.78-2.03-1.68-1.41-2.96.51-1.05,1.7-1.34,2.5-1.13,1.8.52,1.88.37,3-1.93l3.85-7.91c1.18-2.42,1.03-2.49-.31-3.58-.66-.5-1.18-1.58-.67-2.63.62-1.28,1.59-1.5,3.2-.72.91.44,1.81,1.32,3.39,2.08,1.6.78,2.87.93,4.53,1.74,6.3,3.07,7.97,8.46,4.69,15.2-3.11,6.39-8.34,8.9-14.61,5.84-1.28-.62-2.56-1.71-4.31-2.57-1.69-.82-2.85-.96-3.85-1.44ZM301.77,52.67c2.64-5.43,1.9-7.09-1.69-8.83-1.31-.64-1.72-.48-2.83,1.8l-3.85,7.91c-1.12,2.3-.97,2.74.57,3.49,3.56,1.73,5.16,1.03,7.79-4.36Z"/>
        <path class="cls-2" d="M313.71,65.46c-1.46,2.11-1.55,2.24-.19,3.58.57.59.88,1.75.21,2.71-.81,1.17-1.78,1.26-3.24.24-.93-.65-1.33-1.39-2.9-2.48-1.63-1.13-2.57-1.3-3.4-1.88-1.47-1.01-1.76-1.96-.95-3.14.66-.96,1.86-1.04,2.62-.71,1.59.67,1.72.76,3.27-1.48l5-7.23c1.44-2.08,1.53-2.21.21-3.56-.58-.59-.91-1.77-.24-2.73.81-1.17,1.8-1.24,3.27-.22.91.63,1.33,1.39,2.95,2.52,1.55,1.07,2.49,1.25,3.34,1.84,1.47,1.01,1.73,1.95.92,3.12-.66.96-1.82,1.03-2.6.73-1.64-.66-1.77-.75-3.3,1.47l-5,7.23Z"/>
        <path class="cls-2" d="M327.52,78.88c1.34-1.68,2.39-2.92-.21-5.41l-.21-.2c-.47-.4-.82-.51-1.15-.16l-1.25,1.31c-1.88,1.97-1.76,2.31-.54,3.75.52.63.84,1.61-.19,2.69-.99,1.03-1.97.94-3.24-.27-.75-.72-1.23-1.72-2.62-3.04-1.41-1.34-2.36-1.71-3.15-2.48-1.29-1.23-1.43-2.22-.44-3.25.81-.84,2.02-.76,2.72-.31,1.56,1.04,1.67.93,3.44-.93l6.07-6.36c1.86-1.95,1.74-2.06.79-3.51-.47-.68-.64-1.87.17-2.71.99-1.03,1.98-.94,3.26.29.73.69,1.49,1.96,2.33,2.77,1.55,1.48,2.97,2.3,4.21,3.48,3.92,3.74,5.56,7.29,2.22,10.78-1.79,1.88-3.97,2.09-5.98,1.37,1.91,4.48-2.9,6.65-1.38,8.11.33.31.58.29.91.6.47.45.39,1.14-.17,1.72-.72.75-3.33,2.12-6.23-.66-2.04-1.95-2-4.34.63-7.61ZM329.71,69.17c-.47.49-.58.84.78,2.14,2.02,1.93,3.07,1.77,4.44.34,1.32-1.38,1.16-2.44-.93-4.43-.89-.85-1.49-.98-2.12-.32l-2.17,2.27Z"/>
        <path class="cls-2" d="M336.63,98.39c-.92-1.53-.79-2.52.44-3.25,1-.6,2.15-.19,2.71.42,1.23,1.42,1.37,1.34,3.57.02l7.55-4.51c2.31-1.38,2.23-1.52,1.7-3.17-.28-.78-.12-1.97.89-2.57,1.23-.73,2.15-.38,3.07,1.15.52.86.8,2.09,1.69,3.6.92,1.53,1.89,2.35,2.84,3.94,3.59,6.02,2.03,11.45-4.4,15.29-6.1,3.64-11.85,2.88-15.42-3.11-.73-1.23-1.2-2.83-2.2-4.51-.96-1.62-1.86-2.36-2.43-3.31ZM353.67,104.21c5.18-3.09,5.47-4.89,3.42-8.32-.75-1.25-1.18-1.34-3.35-.04l-7.55,4.51c-2.2,1.31-2.31,1.76-1.43,3.24,2.03,3.4,3.75,3.69,8.91.62Z"/>
        <path class="cls-2" d="M356.65,121.51c-2.41.87-2.41,1.84-1.76,3.61,1.42,3.9,2.39,3.73,3.73,3.24.46-.17.88-.53,1.37-.7,1.07-.39,2.87-.45,3.55,1.41.69,1.89-.92,3.37-2.44,3.92-4.82,1.75-7.18,2.09-7.92.04-.6-1.65-.47-2.45-2.37-7.67-1.52-4.18-2.79-6.55-3.17-7.58-.61-1.68-.29-2.62,1.05-3.11,1.1-.4,2.15.22,2.58.93.94,1.63,1.09,1.57,3.5.7l8.27-3c2.53-.92,2.48-1.07,2.27-2.79-.12-.82.26-1.96,1.35-2.36,1.34-.49,2.19.04,2.8,1.71.34.95.65,2.94,2.51,8.06,1.65,4.54,2.32,5.27,2.91,6.88.84,2.32-.26,2.72-5.08,4.46-1.8.65-3.3.51-3.99-1.38-.6-1.65.02-2.7.78-2.98.49-.18,1.26-.25,1.68-.4,1.49-.54,1.58-.78.04-5.02-.64-1.77-1.01-1.84-3.39-.98-1.77.64-1.9.86-1.46,2.05.23.64.66,1.35.96,2.17.54,1.49.14,2.4-1.29,2.92-1.19.43-2.14-.29-2.62-1.05-.99-1.58-1.01-4.12-2.99-3.4l-.85.31Z"/>
        <path class="cls-2" d="M369.93,160.25c-.68,2.7-2.48,4.9-5.39,5.15-4.85.42-6.91-2.76-7.38-8.16-.15-1.71.04-4.11-.15-6.24-.17-1.97-.65-3.01-.74-4.11-.15-1.78.39-2.61,1.82-2.73,1.16-.1,2.02.77,2.25,1.57.48,1.82.64,1.8,3.2,1.58l8.76-.75c2.68-.23,2.67-.39,2.91-2.11.09-.82.76-1.82,1.92-1.92,1.42-.12,2.1.6,2.26,2.38.09,1-.18,2.46-.08,3.62.18,2.13.71,3.69.85,5.4.46,5.4-.71,8.85-5.2,9.24-2.26.19-3.94-1.1-5.04-2.92ZM362.49,152.97c-.97.08-1.31.7-1.19,2.02.28,3.23,1.11,4.17,3.18,3.99,2.1-.18,2.93-1.16,2.67-4.17-.18-2.04-.52-2.2-1.29-2.14l-3.36.29ZM371.32,152.21c-.71.06-.99.25-.83,2.12.24,2.78,1.07,3.36,3.04,3.19,1.91-.16,2.48-1.06,2.23-3.94-.11-1.23-.47-1.72-1.38-1.64l-3.07.26Z"/>
        <path class="cls-2" d="M367.27,188.89c-7.07-.73-11.4-4.63-10.66-11.76.66-6.45,5.08-10.14,12.83-9.35,7.55.77,11.27,5.2,10.6,11.75-.68,6.62-5.31,10.12-12.77,9.35ZM367.93,182.83c6,.62,7.21-.3,7.56-3.76.35-3.42-.64-4.57-6.64-5.18-5.97-.61-7.24.3-7.59,3.72-.35,3.45.7,4.6,6.67,5.22Z"/>
        <path class="cls-2" d="M366.1,212.51c-1.77-.53-3-1.98-2.32-4.25.61-2.02,1.78-1.43,2.42-1.27,1.88.5,3.56.12,4.38-2.62.96-3.2-.69-4.71-5.5-6.16-6.12-1.84-7.68-.37-8.4,2.02-.96,3.2.73,4.12,2.06,4.55.64.23,1.84.65,1.2,2.77-.71,2.36-2.46,2.65-3.92,2.21-2.14-.64-5.97-3.59-3.84-10.67,2.31-7.71,8.12-8.54,13.99-6.78,7.37,2.21,10.48,7.18,8.5,13.8-1.74,5.81-5.7,7.27-8.56,6.41Z"/>
        <path class="cls-2" d="M349.67,225.61l3.14-5.94c-.73-.64-1.27-1.07-1.87-1.39-.97-.51-1.39-.15-1.94.48-.58.61-1.56,1.16-2.77.52-1.18-.62-1.31-1.68-.57-3.09.59-1.12,1.03-1.11,1.95-2.86.94-1.78.7-2.16,1.29-3.28.77-1.46,1.74-1.83,2.94-1.2,1.92,1.02.58,2.51,1.55,3.87.41.62,2.56,3,5.06,5.5,2.26,2.26,4.8,4.52,6.35,6.8,1.26,1.84,1.19,2.61-.08,5.02-1.33,2.52-1.95,3-4.07,3.06-2.99.03-6.28-.82-9.32-1.4-2.99-.59-5.82-1.06-6.5-1.16-.07,0-.1-.02-.13-.03-2.31-.41-2.9,1.95-4.85.92-1.12-.59-1.39-1.61-.6-3.1.58-1.09,1.03-1.11,1.97-2.89.94-1.78.79-2.33,1.4-3.48.76-1.43,1.7-1.89,2.9-1.26,1.06.56,1.35,1.48,1.16,2.45-.21.81-.21,1.17.65,1.63.66.35,1.32.55,2.35.84ZM355.93,222.52l-2.2,4.16c2.99.73,7.32,1.7,7.52,1.33s-3.2-3.53-5.32-5.49Z"/>
      </g>
    </g>
  </g>
</svg>