<svg width="37" height="38" viewBox="0 0 37 38" fill="none" xmlns="http://www.w3.org/2000/svg">
<path d="M20.8278 17.8023H16.4785C15.1921 17.8023 14.1507 16.8221 14.1507 15.597C14.1507 14.3718 15.1921 13.3917 16.4785 13.3917H22.7881C23.5232 13.3917 24.1358 12.7791 24.1358 12.044C24.1358 11.3089 23.5232 10.6963 22.7881 10.6963H19.8477V9.2261C19.8477 8.491 19.2351 7.87842 18.5 7.87842C17.7649 7.87842 17.1523 8.491 17.1523 9.2261V10.6963H16.4785C13.6606 10.6963 11.394 12.9016 11.394 15.6582C11.394 18.4148 13.6606 20.6201 16.4785 20.6201H20.8278C22.1142 20.6201 23.1556 21.6003 23.1556 22.8254C23.1556 24.0506 22.1142 25.0307 20.8278 25.0307H14.2119C13.4768 25.0307 12.8642 25.6433 12.8642 26.3784C12.8642 27.1135 13.4768 27.7261 14.2119 27.7261H17.1523V29.1963C17.1523 29.9314 17.7649 30.544 18.5 30.544C19.2351 30.544 19.8477 29.9314 19.8477 29.1963V27.7261H20.8278C23.6457 27.7261 25.9123 25.5208 25.9123 22.7642C25.9735 20.0076 23.6457 17.8023 20.8278 17.8023Z" fill="#EE774C"/>
<path d="M18.5 0.649902C8.26987 0.649902 0 8.91977 0 19.1499C0 29.38 8.26987 37.6499 18.5 37.6499C28.7301 37.6499 37 29.38 37 19.1499C37 8.91977 28.7301 0.649902 18.5 0.649902ZM18.5 34.9545C9.80132 34.9545 2.69536 27.8486 2.69536 19.1499C2.69536 10.4512 9.80132 3.34527 18.5 3.34527C27.1987 3.34527 34.3046 10.4512 34.3046 19.1499C34.3046 27.8486 27.1987 34.9545 18.5 34.9545Z" fill="#EE774C"/>
</svg>
