<svg width="35" height="38" viewBox="0 0 35 38" fill="none" xmlns="http://www.w3.org/2000/svg">
<path d="M34.0945 27.6411V27.6051C33.9381 27.0349 33.6708 26.5012 33.3081 26.0344C32.9453 25.5676 32.4941 25.1769 31.9802 24.8845C31.4664 24.5921 30.9 24.4039 30.3134 24.3306C29.7267 24.2572 29.1314 24.3002 28.5614 24.457C26.5127 25.0578 23.7011 25.8989 21.5804 26.5116C21.7774 25.8991 21.7583 25.2374 21.5263 24.6372C20.9856 23.2855 19.4777 22.6787 18.2161 22.6787H12.3405C11.7521 22.6399 11.1994 22.3828 10.7906 21.9578C10.1625 21.3776 9.33863 21.0557 8.48359 21.0566H3.73149C2.7223 21.0772 1.76252 21.4974 1.06299 22.2251C0.363459 22.9528 -0.0186156 23.9284 0.000698169 24.9376V32.5013C-0.0186258 33.5287 0.370224 34.5217 1.08198 35.2627C1.79374 36.0038 2.77032 36.4323 3.79757 36.4544H9.51091C10.2439 36.4513 10.9593 36.2296 11.5656 35.8176H11.6256C13.2892 36.7491 15.162 37.2432 17.0686 37.2534C18.2013 37.2567 19.3278 37.0865 20.4089 36.7488L31.0185 33.5106H31.0966C31.6797 33.3233 32.2199 33.0226 32.6864 32.6258C33.153 32.2291 33.5365 31.7441 33.815 31.1987C34.0936 30.6533 34.2617 30.0583 34.3096 29.4478C34.3576 28.8373 34.2845 28.2233 34.0945 27.6411ZM3.79757 34.0513C3.40758 34.0296 3.04205 33.8544 2.78087 33.5639C2.5197 33.2735 2.38413 32.8914 2.40378 32.5013V24.9617C2.38414 24.5897 2.51292 24.2251 2.76186 23.948C3.0108 23.6709 3.35954 23.5039 3.73149 23.4838H8.47759C8.73236 23.4813 8.97803 23.5783 9.16247 23.7541C9.34206 23.9148 9.53061 24.0653 9.72719 24.2047V34.0273C9.65522 34.0332 9.58288 34.0332 9.51091 34.0273L3.79757 34.0513ZM30.2796 31.2457L19.694 34.4538C18.8448 34.7216 17.959 34.8553 17.0686 34.8504C15.5638 34.8498 14.0838 34.4674 12.7671 33.7389L12.1303 33.3965V25.0938H12.3345H18.2161C18.4194 25.0748 18.6243 25.106 18.8129 25.1845C19.0014 25.2631 19.1678 25.3867 19.2975 25.5444C19.3816 25.7607 19.2254 26.4756 18.0058 27.6351L17.3149 28.3019L17.7895 29.125C18.2762 29.9661 18.7508 29.8279 20.7574 29.2572C21.7066 28.9868 22.9742 28.6204 24.2358 28.2479C26.747 27.5149 29.2583 26.764 29.2583 26.764C29.7947 26.6393 30.3586 26.7283 30.8306 27.0119C31.3026 27.2956 31.6458 27.7518 31.7875 28.2839C31.8963 28.5767 31.9432 28.8889 31.9252 29.2007C31.9072 29.5125 31.8248 29.8172 31.6831 30.0955C31.5413 30.3738 31.3435 30.6198 31.1019 30.8177C30.8603 31.0157 30.5803 31.1614 30.2796 31.2457Z" fill="#EE774C"/>
<path d="M28.291 8.78328C29.1598 8.78328 30.0092 8.52557 30.7315 8.04274C31.4538 7.55991 32.0167 6.87368 32.3489 6.07086C32.6811 5.26804 32.7677 4.38472 32.5978 3.53266C32.4279 2.68061 32.009 1.8981 31.3942 1.28416C30.7794 0.670217 29.9964 0.252428 29.1441 0.0836549C28.2918 -0.0851185 27.4086 0.00270825 26.6062 0.336023C25.8039 0.669337 25.1184 1.23316 24.6366 1.95615C24.1547 2.67914 23.8982 3.52881 23.8994 4.39765C23.9025 5.56086 24.3664 6.67542 25.1895 7.49737C26.0126 8.31932 27.1278 8.7817 28.291 8.78328ZM28.291 2.4091C28.6843 2.4091 29.0688 2.52572 29.3958 2.74423C29.7228 2.96273 29.9777 3.2733 30.1282 3.63666C30.2787 4.00002 30.3181 4.39986 30.2413 4.7856C30.1646 5.17134 29.9752 5.52567 29.6971 5.80377C29.419 6.08187 29.0647 6.27127 28.6789 6.348C28.2932 6.42472 27.8934 6.38534 27.53 6.23483C27.1666 6.08433 26.8561 5.82945 26.6376 5.50243C26.4191 5.17542 26.3024 4.79095 26.3024 4.39765C26.3024 4.13651 26.3539 3.87793 26.4538 3.63666C26.5537 3.3954 26.7002 3.17618 26.8849 2.99153C27.0695 2.80688 27.2887 2.6604 27.53 2.56047C27.7713 2.46053 28.0299 2.4091 28.291 2.4091Z" fill="#EE774C"/>
<path d="M26.8672 21.862H28.8497C30.0044 21.8604 31.1114 21.401 31.9279 20.5845C32.7443 19.768 33.2037 18.6611 33.2053 17.5064V14.088C33.2037 12.9333 32.7443 11.8264 31.9279 11.0099C31.1114 10.1934 30.0044 9.73401 28.8497 9.73242H27.0474C25.8927 9.73401 24.7858 10.1934 23.9693 11.0099C23.1528 11.8264 22.6934 12.9333 22.6918 14.088V17.4884C22.6817 18.6174 23.1121 19.706 23.8918 20.5226C24.6715 21.3393 25.7389 21.8198 26.8672 21.862ZM25.1009 14.088C25.1009 13.5702 25.3066 13.0736 25.6728 12.7074C26.039 12.3412 26.5356 12.1355 27.0534 12.1355H28.8557C29.3731 12.1371 29.8688 12.3433 30.2346 12.7091C30.6004 13.075 30.8067 13.5707 30.8083 14.088V17.5064C30.8067 18.0238 30.6004 18.5195 30.2346 18.8853C29.8688 19.2511 29.3731 19.4573 28.8557 19.4589H26.8732C26.3782 19.419 25.9178 19.189 25.5885 18.8172C25.2593 18.4454 25.0867 17.9606 25.1069 17.4644L25.1009 14.088Z" fill="#EE774C"/>
</svg>
