<svg width="37" height="38" viewBox="0 0 37 38" fill="none" xmlns="http://www.w3.org/2000/svg">
<path d="M33.4514 37.0289H25.4402C23.4832 37.0289 21.8321 35.4389 21.8321 33.4208V26.9385C21.8321 26.4492 21.4652 26.0823 20.9759 26.0823H16.0836C15.5943 26.0823 15.2274 26.4492 15.2274 26.9385V33.4208C15.2274 35.4389 13.6374 37.0289 11.6193 37.0289H3.6081C1.65117 37.0289 0 35.4389 0 33.4208V12.8118C0 11.7722 0.489234 10.8549 1.34539 10.3045L16.9397 0.458657C17.9182 -0.152886 19.1413 -0.152886 20.0586 0.458657L35.653 10.3657C36.5091 10.916 36.9984 11.8334 36.9984 12.873V33.4208C37.0595 35.3778 35.4083 37.0289 33.4514 37.0289ZM16.0836 23.3304H20.9759C22.994 23.3304 24.584 24.9204 24.584 26.9385V33.4208C24.584 33.9101 24.951 34.277 25.4402 34.277H33.4514C33.9406 34.277 34.3076 33.9101 34.3076 33.4208V12.8118C34.3076 12.7507 34.2464 12.6895 34.2464 12.6284L18.5909 2.78252C18.5298 2.72137 18.4686 2.72137 18.4074 2.78252L2.87425 12.6284C2.8131 12.6895 2.75194 12.7507 2.75194 12.8118V33.4208C2.75194 33.9101 3.11887 34.277 3.6081 34.277H11.6193C12.1086 34.277 12.4755 33.9101 12.4755 33.4208V26.9385C12.4755 24.9815 14.0655 23.3304 16.0836 23.3304Z" fill="#EE774C"/>
</svg>
